<svg width="58" height="58" viewBox="0 0 58 58" fill="none" xmlns="http://www.w3.org/2000/svg">
<circle cx="28.9999" cy="29" r="28.5357" fill="#EAC029"/>
<g clip-path="url(#clip0_127_162)">
<path d="M44.0442 26.2056V27.4454H41.3766V33.9679H40.0427V27.4455H37.3195V26.2056H44.0442ZM44.3441 33.2285C44.438 33.2285 44.5202 33.2623 44.5898 33.3299C44.6604 33.3975 44.6955 33.4784 44.6965 33.5727C44.6963 33.6346 44.6791 33.6952 44.6467 33.748C44.615 33.8001 44.5705 33.8432 44.5175 33.8734C44.4651 33.9047 44.4051 33.921 44.3441 33.9206C44.2463 33.9206 44.1632 33.8867 44.0937 33.8192C44.0241 33.7515 43.9897 33.6697 43.9906 33.5727C43.9897 33.4784 44.0241 33.3975 44.0937 33.3299C44.1632 33.2623 44.2463 33.2285 44.3441 33.2285ZM17.9069 33.9679L12.9886 27.8616V33.9648H11.6547V26.2024H13.3219L19.5357 33.9099L19.5358 27.4455L19.5353 26.2056H26.2599V27.4454H20.8696V29.4399H25.2045V30.6797H20.8696V32.7282H26.2599V33.9679H17.9069ZM30.5348 30.6679L31.409 31.7535L29.6178 33.9771H27.8673L30.5348 30.6679ZM29.6178 26.2089L31.8746 29.0085L34.1244 26.2175L35.87 26.2148L32.7486 30.0927L35.8751 33.9712H34.1244L27.8722 26.2089H29.6178ZM46.6206 30.6505H47.2116V32.9252C47.2108 33.1342 47.1655 33.313 47.077 33.4634C46.9875 33.6136 46.8636 33.7284 46.7047 33.8094C46.5465 33.8894 46.3612 33.9304 46.1506 33.9304C45.9581 33.9304 45.7856 33.8957 45.6319 33.8281C45.4782 33.7604 45.3563 33.659 45.2668 33.5256C45.1763 33.3922 45.132 33.2258 45.132 33.0266H45.7241C45.725 33.1137 45.7448 33.1893 45.7828 33.2525C45.8201 33.315 45.8748 33.3653 45.9401 33.3975C46.0078 33.4314 46.0856 33.4482 46.1731 33.4482C46.2682 33.4482 46.3494 33.4286 46.4154 33.3886C46.4813 33.3494 46.532 33.2907 46.5673 33.2125C46.6016 33.135 46.6197 33.039 46.6206 32.9251V30.6505ZM49.6436 31.5401C49.6292 31.4022 49.5659 31.2945 49.4557 31.2181C49.3444 31.1406 49.2008 31.1024 49.0245 31.1024C48.9008 31.1024 48.7941 31.1211 48.7055 31.1576C48.617 31.1949 48.5483 31.2447 48.5013 31.3079C48.4544 31.371 48.4308 31.4431 48.4289 31.5241C48.4289 31.5917 48.4452 31.6504 48.4768 31.6993C48.5096 31.7505 48.5539 31.7935 48.6061 31.8248C48.6628 31.8604 48.7235 31.8893 48.7869 31.911C48.8537 31.9341 48.9207 31.9537 48.9875 31.9698L49.2956 32.0454C49.4195 32.0739 49.5397 32.112 49.6545 32.161C49.7692 32.2091 49.8732 32.2704 49.9644 32.3443C50.0557 32.4181 50.128 32.507 50.1814 32.6111C50.2347 32.7152 50.2618 32.8371 50.2618 32.9776C50.2618 33.1671 50.213 33.3334 50.1145 33.4775C50.016 33.6208 49.8741 33.7329 49.6879 33.8138C49.5026 33.8939 49.2785 33.9348 49.0146 33.9348C48.7597 33.9348 48.5375 33.8956 48.3503 33.8174C48.1624 33.74 48.016 33.6261 47.9102 33.4766C47.8044 33.3272 47.7475 33.1448 47.7394 32.9305H48.3251C48.3332 33.0426 48.3694 33.1359 48.4308 33.2116C48.4931 33.2863 48.5745 33.3414 48.6739 33.3788C48.7742 33.4153 48.8863 33.434 49.0101 33.434C49.1393 33.434 49.2532 33.4144 49.3517 33.3761C49.4493 33.3379 49.5261 33.2846 49.5813 33.2151C49.6373 33.1466 49.6654 33.0657 49.6663 32.9732C49.6654 32.8887 49.6399 32.8184 49.5912 32.7632C49.5415 32.7081 49.4728 32.6618 49.3851 32.6244C49.2966 32.5871 49.1936 32.5533 49.0761 32.524L48.7019 32.4297C48.4317 32.3611 48.2175 32.2571 48.0611 32.1174C47.9039 31.9777 47.8262 31.7928 47.8262 31.5605C47.8262 31.3702 47.8786 31.2029 47.9844 31.0597C48.0892 30.9166 48.2329 30.8053 48.4145 30.7261C48.597 30.6461 48.8032 30.6069 49.0326 30.6069C49.2659 30.6069 49.4701 30.6461 49.6464 30.7261C49.8225 30.8053 49.9609 30.9156 50.0611 31.0561C50.1614 31.1967 50.2139 31.3577 50.2166 31.5401H49.6436Z" fill="white"/>
</g>
<defs>
<clipPath id="clip0_127_162">
<rect width="38.6071" height="7.83333" fill="white" transform="translate(11.6547 26.2024)"/>
</clipPath>
</defs>
</svg>
