<svg width="77" height="77" viewBox="0 0 77 77" fill="none" xmlns="http://www.w3.org/2000/svg">
<circle cx="38.5" cy="38.5" r="37.6439" fill="#43DDFF"/>
<g clip-path="url(#clip0_127_126)">
<path d="M19.0575 23.22C19.0575 20.9223 20.9223 19.0575 23.22 19.0575H52.9525C55.2502 19.0575 57.1151 20.9223 57.1151 23.22V27.9772C57.1151 28.4504 56.9271 28.9041 56.5925 29.2387C56.258 29.5732 55.8042 29.7612 55.3311 29.7612C54.858 29.7612 54.4042 29.5732 54.0697 29.2387C53.7351 28.9041 53.5472 28.4504 53.5472 27.9772V23.22C53.5472 23.0623 53.4845 22.9111 53.373 22.7996C53.2615 22.688 53.1102 22.6254 52.9525 22.6254H23.22C23.0623 22.6254 22.9111 22.688 22.7996 22.7996C22.688 22.9111 22.6254 23.0623 22.6254 23.22V52.9525C22.6254 53.2808 22.8918 53.5472 23.22 53.5472H55.3311C55.8042 53.5472 56.258 53.7351 56.5925 54.0697C56.9271 54.4042 57.1151 54.858 57.1151 55.3311C57.1151 55.8042 56.9271 56.258 56.5925 56.5925C56.258 56.9271 55.8042 57.1151 55.3311 57.1151H23.22C22.1161 57.1151 21.0573 56.6765 20.2767 55.8959C19.496 55.1152 19.0575 54.0565 19.0575 52.9525V23.22ZM30.3558 34.5184C30.3558 34.0452 30.5438 33.5915 30.8783 33.2569C31.2129 32.9224 31.6666 32.7344 32.1398 32.7344H41.0595C41.5327 32.7344 41.9864 32.9224 42.321 33.2569C42.6555 33.5915 42.8435 34.0452 42.8435 34.5184C42.8435 34.9915 42.6555 35.4453 42.321 35.7798C41.9864 36.1144 41.5327 36.3023 41.0595 36.3023H38.6809V48.79C38.6809 49.2631 38.493 49.7168 38.1584 50.0514C37.8239 50.386 37.3701 50.5739 36.897 50.5739C36.4238 50.5739 35.9701 50.386 35.6355 50.0514C35.301 49.7168 35.113 49.2631 35.113 48.79V36.3023H32.1398C31.6666 36.3023 31.2129 36.1144 30.8783 35.7798C30.5438 35.4453 30.3558 34.9915 30.3558 34.5184ZM45.8786 34.7087C46.8728 33.5241 48.4355 32.7344 50.5739 32.7344C52.56 32.7344 54.0586 33.4147 55.0695 34.4827C55.3827 34.8285 55.548 35.2833 55.5299 35.7496C55.5118 36.2159 55.3117 36.6565 54.9725 36.977C54.6334 37.2974 54.1822 37.4723 53.7156 37.464C53.2491 37.4557 52.8043 37.265 52.4768 36.9327C52.2151 36.6567 51.6918 36.3023 50.5739 36.3023C49.3846 36.3023 48.8613 36.7019 48.6092 37.004C48.3573 37.3102 48.212 37.6901 48.1953 38.0863C48.1953 38.3336 48.2976 38.7999 48.6092 39.1685C48.8637 39.4706 49.3822 39.8702 50.5739 39.8702C50.7547 39.8702 50.9283 39.8964 51.0924 39.9463C52.6695 40.1699 53.8611 40.874 54.6746 41.8445C55.6118 42.9624 55.9258 44.2801 55.9258 45.2221C55.9258 46.164 55.6118 47.4817 54.6746 48.5997C53.6804 49.7842 52.1176 50.5739 49.9793 50.5739C47.9931 50.5739 46.4946 49.8936 45.4837 48.8256C45.1704 48.4798 45.0052 48.025 45.0233 47.5587C45.0414 47.0925 45.2415 46.6519 45.5806 46.3314C45.9198 46.0109 46.371 45.836 46.8375 45.8443C47.3041 45.8526 47.7488 46.0434 48.0764 46.3757C48.338 46.6516 48.8613 47.006 49.9793 47.006C51.1686 47.006 51.6919 46.6064 51.944 46.3043C52.1959 45.9981 52.3412 45.6182 52.3579 45.2221C52.3579 44.9747 52.2556 44.5085 51.944 44.1398C51.6895 43.8377 51.1709 43.4381 49.9793 43.4381C49.8036 43.4385 49.6289 43.4128 49.4607 43.362C47.8837 43.136 46.692 42.4343 45.8786 41.4639C45.086 40.5151 44.6442 39.3224 44.6274 38.0863C44.6274 37.1443 44.9414 35.8266 45.8786 34.7087Z" fill="white"/>
</g>
<defs>
<clipPath id="clip0_127_126">
<rect width="38.0576" height="38.0576" fill="white" transform="translate(19.0575 19.0575)"/>
</clipPath>
</defs>
</svg>
